<svg width="90" height="105" viewBox="0 0 90 105" fill="none" xmlns="http://www.w3.org/2000/svg">
<path d="M14.6862 52.2561L14.4378 52.4007V52.6882V69.1324L0.5 61.0559V43.9435L75.0627 0.578146L89.5 8.94406V25.4765L75.3129 17.2556L75.0617 17.11L74.8107 17.2561L14.6862 52.2561ZM44.936 69.5674L44.6867 69.7119V70V86.8127L30.3755 78.3704V61.6314L75.063 35.5783L89.5 43.9441V60.4765L75.3129 52.2556L75.0622 52.1103L74.8116 52.2556L44.936 69.5674ZM89.5 95.4765L75.3129 87.2556L74.5622 86.8206V87.6882V104.132L60.6245 96.0559V78.9441L75.0622 70.5779L89.5 78.9441V95.4765Z" fill="#0D3332" stroke="#0D3332"/>
</svg>
